<svg preserveAspectRatio="none" width="100%" height="100%" overflow="visible" style="display: block;" viewBox="0 0 1216 1007.13" fill="none" xmlns="http://www.w3.org/2000/svg">
<g id="Keep it">
<rect id="Rectangle" width="1216" height="850.068" rx="13.6761" fill="var(--fill-0, #EEEEEE)"/>
<path id="Rectangle_2" opacity="0.5" d="M0 728.965H1216V836.392C1216 843.945 1209.88 850.068 1202.32 850.068H13.6762C6.12308 850.068 0 843.945 0 836.392V728.965Z" fill="var(--fill-0, #DDDDDD)"/>
<g id="Rectangle 2.1" filter="url(#filter0_d_0_6)">
<path d="M403.25 999.69C401.092 997.532 401.296 991.095 405.985 987.579H810.016C814.705 991.095 815.095 996.174 812.751 999.69C810.328 1003.32 798.294 1004.12 792.042 1003.99H423.959C417.708 1004.12 406.766 1003.21 403.25 999.69Z" fill="url(#paint0_linear_0_6)"/>
</g>
<g id="Rectangle 2.2">
<path d="M469.676 850.068C469.676 850.068 457.564 937.185 454.046 946.56C450.529 955.936 433.337 966.093 430.211 968.437C427.085 970.781 416.144 978.594 411.455 982.11C406.766 985.626 400.978 989.678 403.25 994.22C405.203 998.127 417.707 998.648 423.959 998.518H630.664H792.041C798.293 998.648 810.797 998.127 812.751 994.22C815.022 989.678 809.234 985.626 804.545 982.11C799.857 978.594 788.916 970.781 785.79 968.437C782.663 966.093 765.472 955.936 761.954 946.56C758.437 937.185 746.324 850.068 746.324 850.068H630.664H469.676Z" fill="var(--fill-0, #F5F5F5)"/>
<path d="M469.676 850.068C469.676 850.068 457.564 937.185 454.046 946.56C450.529 955.936 433.337 966.093 430.211 968.437C427.085 970.781 416.144 978.594 411.455 982.11C406.766 985.626 400.978 989.678 403.25 994.22C405.203 998.127 417.707 998.648 423.959 998.518H630.664H792.041C798.293 998.648 810.797 998.127 812.751 994.22C815.022 989.678 809.234 985.626 804.545 982.11C799.857 978.594 788.916 970.781 785.79 968.437C782.663 966.093 765.472 955.936 761.954 946.56C758.437 937.185 746.324 850.068 746.324 850.068H630.664H469.676Z" fill="url(#paint1_radial_0_6)"/>
<path d="M469.676 850.068C469.676 850.068 457.564 937.185 454.046 946.56C450.529 955.936 433.337 966.093 430.211 968.437C427.085 970.781 416.144 978.594 411.455 982.11C406.766 985.626 400.978 989.678 403.25 994.22C405.203 998.127 417.707 998.648 423.959 998.518H630.664H792.041C798.293 998.648 810.797 998.127 812.751 994.22C815.022 989.678 809.234 985.626 804.545 982.11C799.857 978.594 788.916 970.781 785.79 968.437C782.663 966.093 765.472 955.936 761.954 946.56C758.437 937.185 746.324 850.068 746.324 850.068H630.664H469.676Z" fill="url(#paint2_linear_0_6)"/>
<path d="M469.676 850.068C469.676 850.068 457.564 937.185 454.046 946.56C450.529 955.936 433.337 966.093 430.211 968.437C427.085 970.781 416.144 978.594 411.455 982.11C406.766 985.626 400.978 989.678 403.25 994.22C405.203 998.127 417.707 998.648 423.959 998.518H630.664H792.041C798.293 998.648 810.797 998.127 812.751 994.22C815.022 989.678 809.234 985.626 804.545 982.11C799.857 978.594 788.916 970.781 785.79 968.437C782.663 966.093 765.472 955.936 761.954 946.56C758.437 937.185 746.324 850.068 746.324 850.068H630.664H469.676Z" fill="url(#paint3_linear_0_6)"/>
</g>
<rect id="Rectangle 3" x="41.2236" y="45.1209" width="1133.55" height="639.504" stroke="var(--stroke-0, #E1E1E1)" stroke-width="1.17224"/>
<path id="Vector" d="M631.194 800.241C630.311 802.316 629.264 804.226 628.052 805.981C626.4 808.375 625.047 810.031 624.004 810.951C622.388 812.462 620.656 813.235 618.801 813.279C617.47 813.279 615.864 812.894 613.995 812.113C612.12 811.336 610.397 810.951 608.822 810.951C607.169 810.951 605.397 811.336 603.501 812.113C601.603 812.894 600.073 813.301 598.904 813.341C597.126 813.418 595.353 812.623 593.584 810.951C592.455 809.951 591.042 808.235 589.35 805.805C587.534 803.21 586.042 800.201 584.873 796.77C583.62 793.065 582.992 789.476 582.992 786.002C582.992 782.023 583.839 778.591 585.534 775.715C586.867 773.404 588.639 771.582 590.858 770.244C593.076 768.906 595.473 768.225 598.055 768.181C599.467 768.181 601.32 768.625 603.622 769.497C605.917 770.372 607.391 770.816 608.037 770.816C608.52 770.816 610.157 770.297 612.933 769.263C615.558 768.303 617.773 767.906 619.588 768.062C624.505 768.465 628.2 770.435 630.657 773.983C626.259 776.69 624.083 780.482 624.127 785.346C624.166 789.135 625.519 792.288 628.178 794.791C629.383 795.953 630.729 796.851 632.226 797.489C631.902 798.445 631.559 799.362 631.194 800.241V800.241ZM619.916 755.154C619.916 758.124 618.848 760.897 616.719 763.463C614.151 766.514 611.043 768.277 607.674 767.999C607.631 767.643 607.606 767.268 607.606 766.874C607.606 764.023 608.828 760.972 610.997 758.477C612.08 757.214 613.458 756.164 615.128 755.326C616.795 754.501 618.372 754.045 619.855 753.967C619.898 754.364 619.916 754.761 619.916 755.154V755.154Z" fill="var(--fill-0, #C8C8C8)"/>
</g>
<defs>
<filter id="filter0_d_0_6" x="399.975" y="986.798" width="416.132" height="20.3282" filterUnits="userSpaceOnUse" color-interpolation-filters="sRGB">
<feFlood flood-opacity="0" result="BackgroundImageFix"/>
<feColorMatrix in="SourceAlpha" type="matrix" values="0 0 0 0 0 0 0 0 0 0 0 0 0 0 0 0 0 0 127 0" result="hardAlpha"/>
<feOffset dy="1.17224"/>
<feGaussianBlur stdDeviation="0.976864"/>
<feColorMatrix type="matrix" values="0 0 0 0 0 0 0 0 0 0 0 0 0 0 0 0 0 0 0.38 0"/>
<feBlend mode="normal" in2="BackgroundImageFix" result="effect1_dropShadow_0_6"/>
<feBlend mode="normal" in="SourceGraphic" in2="effect1_dropShadow_0_6" result="shape"/>
</filter>
<linearGradient id="paint0_linear_0_6" x1="608" y1="998.518" x2="608" y2="1005.16" gradientUnits="userSpaceOnUse">
<stop offset="0.474551" stop-color="#D4D4D4"/>
<stop offset="1" stop-color="#B4B4B4"/>
</linearGradient>
<radialGradient id="paint1_radial_0_6" cx="0" cy="0" r="1" gradientUnits="userSpaceOnUse" gradientTransform="translate(608 964.53) rotate(90) scale(106.259 704.361)">
<stop stop-color="#DBDBDB"/>
<stop offset="1" stop-color="white" stop-opacity="0"/>
</radialGradient>
<linearGradient id="paint2_linear_0_6" x1="608" y1="850.068" x2="608" y2="998.535" gradientUnits="userSpaceOnUse">
<stop stop-color="white" stop-opacity="0"/>
<stop offset="0.541436" stop-color="white"/>
<stop offset="1" stop-color="white" stop-opacity="0"/>
</linearGradient>
<linearGradient id="paint3_linear_0_6" x1="608" y1="850.068" x2="608" y2="953.983" gradientUnits="userSpaceOnUse">
<stop stop-color="#D7D7D7"/>
<stop offset="1" stop-color="white" stop-opacity="0"/>
</linearGradient>
</defs>
</svg>
